<?xml version="1.0" encoding="UTF-8" standalone="no"?>
<!-- Generator: Adobe Illustrator 17.0.0, SVG Export Plug-In . SVG Version: 6.00 Build 0)  -->

<svg
   version="1.1"
   id="Capa_2"
   x="0px"
   y="0px"
   width="1857"
   height="1857"
   viewBox="0 0 1857 1856.9999"
   enable-background="new 0 0 841.89 595.28"
   xml:space="preserve"
   sodipodi:docname="udelar.svg"
   inkscape:version="1.2.1 (9c6d41e, 2022-07-14)"
   xmlns:inkscape="http://www.inkscape.org/namespaces/inkscape"
   xmlns:sodipodi="http://sodipodi.sourceforge.net/DTD/sodipodi-0.dtd"
   xmlns="http://www.w3.org/2000/svg"
   xmlns:svg="http://www.w3.org/2000/svg"><defs
   id="defs429" /><sodipodi:namedview
   id="namedview427"
   pagecolor="#ffffff"
   bordercolor="#666666"
   borderopacity="1.0"
   inkscape:showpageshadow="2"
   inkscape:pageopacity="0.0"
   inkscape:pagecheckerboard="0"
   inkscape:deskcolor="#d1d1d1"
   showgrid="false"
   inkscape:zoom="0.19822604"
   inkscape:cx="257.28205"
   inkscape:cy="1190.5601"
   inkscape:window-width="1487"
   inkscape:window-height="912"
   inkscape:window-x="0"
   inkscape:window-y="25"
   inkscape:window-maximized="0"
   inkscape:current-layer="Capa_2" />
































<g
   id="g778"
   transform="matrix(4.8052042,0,0,4.8052042,-1094.2267,-497.82876)"
   style="stroke-width:0.208108"><g
     id="g360"
     style="stroke-width:0.208108">
	<polygon
   fill="#004982"
   points="388.117,303.657 390.629,303.657 390.629,302.388 390.629,301.964 388.117,301.964 388.117,302.388 "
   id="polygon182"
   style="stroke-width:0.0508353" />
	<rect
   x="388.117"
   y="296.883"
   fill="#004982"
   width="2.5109999"
   height="1.693"
   id="rect184"
   style="stroke-width:0.0508353" />
	<polygon
   fill="#004982"
   points="397.407,282.899 398.412,287.476 399.417,287.986 400.421,287.476 401.424,282.899 399.417,282.899 "
   id="polygon186"
   style="stroke-width:0.0508353" />
	<rect
   x="408.20599"
   y="307.47299"
   fill="#004982"
   width="3.7650001"
   height="1.693"
   id="rect188"
   style="stroke-width:0.0508353" />
	<rect
   x="408.20599"
   y="301.96399"
   fill="#004982"
   width="3.7650001"
   height="1.693"
   id="rect190"
   style="stroke-width:0.0508353" />
	<rect
   x="408.20599"
   y="296.883"
   fill="#004982"
   width="3.7650001"
   height="1.693"
   id="rect192"
   style="stroke-width:0.0508353" />
	<polygon
   fill="#004982"
   points="418.751,282.899 419.754,287.476 420.758,287.986 421.765,287.476 422.767,282.899 420.758,282.899 "
   id="polygon194"
   style="stroke-width:0.0508353" />
	<rect
   x="429.54599"
   y="307.47299"
   fill="#004982"
   width="3.766"
   height="1.693"
   id="rect196"
   style="stroke-width:0.0508353" />
	<rect
   x="429.54599"
   y="301.96399"
   fill="#004982"
   width="3.766"
   height="1.693"
   id="rect198"
   style="stroke-width:0.0508353" />
	<rect
   x="429.54599"
   y="296.883"
   fill="#004982"
   width="3.766"
   height="1.693"
   id="rect200"
   style="stroke-width:0.0508353" />
	<polygon
   fill="#004982"
   points="440.092,282.899 441.097,287.476 442.101,287.986 443.106,287.476 444.111,282.899 442.101,282.899 "
   id="polygon202"
   style="stroke-width:0.0508353" />
	<polygon
   fill="#004982"
   points="450.889,303.657 453.401,303.657 453.401,302.388 453.401,301.964 450.889,301.964 450.889,302.388 "
   id="polygon204"
   style="stroke-width:0.0508353" />
	<rect
   x="450.88901"
   y="296.883"
   fill="#004982"
   width="2.5109999"
   height="1.693"
   id="rect206"
   style="stroke-width:0.0508353" />
	<rect
   x="474.741"
   y="262.98901"
   fill="#004982"
   width="5.441"
   height="0.84899998"
   id="rect208"
   style="stroke-width:0.0508353" />
	<rect
   x="474.741"
   y="268.495"
   fill="#004982"
   width="5.441"
   height="0.84899998"
   id="rect210"
   style="stroke-width:0.0508353" />
	<rect
   x="474.741"
   y="257.48199"
   fill="#004982"
   width="5.441"
   height="0.84899998"
   id="rect212"
   style="stroke-width:0.0508353" />
	<rect
   x="474.741"
   y="251.974"
   fill="#004982"
   width="5.441"
   height="0.852"
   id="rect214"
   style="stroke-width:0.0508353" />
	<rect
   x="474.741"
   y="246.468"
   fill="#004982"
   width="5.441"
   height="0.84600002"
   id="rect216"
   style="stroke-width:0.0508353" />
	<rect
   x="474.741"
   y="240.959"
   fill="#004982"
   width="5.441"
   height="0.84399998"
   id="rect218"
   style="stroke-width:0.0508353" />
	<rect
   x="464.28101"
   y="246.468"
   fill="#004982"
   width="8.368"
   height="22.875999"
   id="rect220"
   style="stroke-width:0.0508353" />
	<rect
   x="456.74799"
   y="262.98901"
   fill="#004982"
   width="5.4390001"
   height="0.84899998"
   id="rect222"
   style="stroke-width:0.0508353" />
	<rect
   x="456.74799"
   y="268.495"
   fill="#004982"
   width="5.4390001"
   height="0.84899998"
   id="rect224"
   style="stroke-width:0.0508353" />
	<rect
   x="456.74799"
   y="257.48199"
   fill="#004982"
   width="5.4390001"
   height="0.84899998"
   id="rect226"
   style="stroke-width:0.0508353" />
	<rect
   x="456.74799"
   y="251.974"
   fill="#004982"
   width="5.4390001"
   height="0.852"
   id="rect228"
   style="stroke-width:0.0508353" />
	<rect
   x="456.74799"
   y="246.468"
   fill="#004982"
   width="5.4390001"
   height="0.84600002"
   id="rect230"
   style="stroke-width:0.0508353" />
	<rect
   x="456.74799"
   y="240.959"
   fill="#004982"
   width="5.4390001"
   height="0.84399998"
   id="rect232"
   style="stroke-width:0.0508353" />
	<rect
   x="435.405"
   y="272.31"
   fill="#004982"
   width="13.39"
   height="2.5420001"
   id="rect234"
   style="stroke-width:0.0508353" />
	<rect
   x="437.91699"
   y="249.00999"
   fill="#004982"
   width="8.3710003"
   height="22.030001"
   id="rect236"
   style="stroke-width:0.0508353" />
	<polygon
   fill="#004982"
   points="420.759,272.31 414.063,272.31 414.063,274.852 427.453,274.852 427.453,272.31 "
   id="polygon238"
   style="stroke-width:0.0508353" />
	<polygon
   fill="#004982"
   points="424.944,249.011 420.758,249.011 416.575,249.011 416.575,271.041 420.758,271.041 424.944,271.041 "
   id="polygon240"
   style="stroke-width:0.0508353" />
	<rect
   x="392.72198"
   y="272.31"
   fill="#004982"
   width="13.39"
   height="2.5420001"
   id="rect242"
   style="stroke-width:0.0508353" />
	<rect
   x="395.233"
   y="249.00999"
   fill="#004982"
   width="8.368"
   height="22.030001"
   id="rect244"
   style="stroke-width:0.0508353" />
	<rect
   x="379.33099"
   y="262.98901"
   fill="#004982"
   width="5.441"
   height="0.84899998"
   id="rect246"
   style="stroke-width:0.0508353" />
	<rect
   x="379.33099"
   y="268.495"
   fill="#004982"
   width="5.441"
   height="0.84899998"
   id="rect248"
   style="stroke-width:0.0508353" />
	<rect
   x="379.33099"
   y="257.48199"
   fill="#004982"
   width="5.441"
   height="0.84899998"
   id="rect250"
   style="stroke-width:0.0508353" />
	<rect
   x="379.33099"
   y="251.974"
   fill="#004982"
   width="5.441"
   height="0.852"
   id="rect252"
   style="stroke-width:0.0508353" />
	<rect
   x="379.33099"
   y="246.468"
   fill="#004982"
   width="5.441"
   height="0.84600002"
   id="rect254"
   style="stroke-width:0.0508353" />
	<rect
   x="379.33099"
   y="240.959"
   fill="#004982"
   width="5.441"
   height="0.84399998"
   id="rect256"
   style="stroke-width:0.0508353" />
	<rect
   x="368.867"
   y="246.468"
   fill="#004982"
   width="8.3690004"
   height="22.875999"
   id="rect258"
   style="stroke-width:0.0508353" />
	<rect
   x="361.33701"
   y="257.48199"
   fill="#004982"
   width="5.441"
   height="0.84899998"
   id="rect260"
   style="stroke-width:0.0508353" />
	<rect
   x="361.33701"
   y="262.98901"
   fill="#004982"
   width="5.441"
   height="0.84899998"
   id="rect262"
   style="stroke-width:0.0508353" />
	<rect
   x="361.33701"
   y="251.974"
   fill="#004982"
   width="5.441"
   height="0.852"
   id="rect264"
   style="stroke-width:0.0508353" />
	<rect
   x="361.33701"
   y="246.468"
   fill="#004982"
   width="5.441"
   height="0.84600002"
   id="rect266"
   style="stroke-width:0.0508353" />
	<rect
   x="361.33701"
   y="240.959"
   fill="#004982"
   width="5.441"
   height="0.84399998"
   id="rect268"
   style="stroke-width:0.0508353" />
	<rect
   x="361.33701"
   y="268.495"
   fill="#004982"
   width="5.441"
   height="0.84899998"
   id="rect270"
   style="stroke-width:0.0508353" />
	<path
   fill="#004982"
   d="m 399.208,199.864 c 2.54,0 4.603,-2.085 4.603,-4.657 0,-2.575 -2.063,-4.66 -4.603,-4.66 -2.543,0 -4.603,2.085 -4.603,4.66 0,2.572 2.06,4.657 4.603,4.657"
   id="path272"
   style="stroke-width:0.0508353" />
	<path
   fill="#004982"
   d="m 420.758,199.864 c 2.543,0 4.603,-2.085 4.603,-4.657 0,-2.575 -2.06,-4.66 -4.603,-4.66 -2.543,0 -4.603,2.085 -4.603,4.66 0,2.572 2.06,4.657 4.603,4.657"
   id="path274"
   style="stroke-width:0.0508353" />
	<path
   fill="#004982"
   d="m 442.31,199.864 c 2.542,0 4.603,-2.085 4.603,-4.657 0,-2.575 -2.061,-4.66 -4.603,-4.66 -2.543,0 -4.603,2.085 -4.603,4.66 0,2.572 2.06,4.657 4.603,4.657"
   id="path276"
   style="stroke-width:0.0508353" />
	<path
   fill="#004982"
   d="m 387.7,218.509 h -0.25 c -3.455,-4.149 -8.622,-6.78 -14.397,-6.78 -5.777,0 -10.944,2.631 -14.399,6.78 h -0.248 v 1.693 H 387.7 Z"
   id="path278"
   style="stroke-width:0.0508353" />
	<polygon
   fill="#004982"
   points="453.4,205.797 420.757,205.797 388.117,205.797 388.117,208.298 420.757,208.298 453.4,208.298 "
   id="polygon280"
   style="stroke-width:0.0508353" />
	<polygon
   fill="#004982"
   points="420.758,215.542 448.796,215.542 448.796,213.422 453.401,213.422 453.401,211.304 388.118,211.304 388.118,213.422 392.722,213.422 392.722,215.542 "
   id="polygon282"
   style="stroke-width:0.0508353" />
	<rect
   x="392.72198"
   y="218.509"
   fill="#004982"
   width="56.074001"
   height="1.693"
   id="rect284"
   style="stroke-width:0.0508353" />
	<polygon
   fill="#004982"
   points="361.336,221.471 361.336,223.589 361.336,225.282 361.336,226.555 388.117,226.555 388.117,229.522 453.4,229.522 453.4,226.555 480.182,226.555 480.182,225.282 480.182,223.589 480.182,221.471 456.748,221.471 456.748,223.589 384.772,223.589 384.772,221.471 "
   id="polygon286"
   style="stroke-width:0.0508353" />
	<path
   fill="#004982"
   d="m 361.337,234.182 h 6.694 v 3.811 h 0.945 c 0.91,1.282 2.397,2.118 4.076,2.118 1.68,0 3.167,-0.836 4.076,-2.118 h 0.946 v -3.811 h 6.696 v -3.388 h -23.434 v 3.388 z"
   id="path288"
   style="stroke-width:0.0508353" />
	<path
   fill="#004982"
   d="m 456.748,234.182 h 6.696 v 3.811 h 0.945 c 0.911,1.282 2.397,2.118 4.076,2.118 1.68,0 3.165,-0.836 4.078,-2.118 h 0.945 v -3.811 h 6.694 v -3.388 h -23.434 z"
   id="path290"
   style="stroke-width:0.0508353" />
	<path
   fill="#004982"
   d="m 399.416,237.038 c 1.678,0 3.036,1.376 3.036,3.073 0,1.701 -1.358,3.074 -3.036,3.074 -1.676,0 -3.036,-1.373 -3.036,-3.074 0,-1.696 1.36,-3.073 3.036,-3.073 m -11.299,0.11 h 8.312 c -0.243,0.254 -0.458,0.534 -0.636,0.846 h -3.071 v 4.662 h 3.346 c 0.763,1.026 1.979,1.695 3.35,1.695 1.369,0 2.583,-0.668 3.346,-1.695 h 3.348 v -4.662 h -3.071 c -0.177,-0.312 -0.391,-0.592 -0.636,-0.846 h 12.333 c 1.088,-2.259 3.375,-3.814 6.022,-3.814 h -32.642 v 3.814 z"
   id="path292"
   style="stroke-width:0.0508353" />
	<path
   fill="#004982"
   d="m 442.101,237.038 c 1.676,0 3.035,1.376 3.035,3.073 0,1.701 -1.358,3.074 -3.035,3.074 -1.676,0 -3.036,-1.373 -3.036,-3.074 0,-1.696 1.36,-3.073 3.036,-3.073 m -15.321,0.11 h 12.334 c -0.247,0.254 -0.46,0.534 -0.636,0.846 h -3.073 v 4.662 h 3.348 c 0.763,1.026 1.979,1.695 3.348,1.695 1.369,0 2.585,-0.668 3.348,-1.695 h 3.346 v -4.662 h -3.071 c -0.177,-0.312 -0.39,-0.592 -0.636,-0.846 h 8.312 v -3.814 h -32.642 c 2.649,0 4.936,1.556 6.022,3.814"
   id="path294"
   style="stroke-width:0.0508353" />
	<path
   fill="#004982"
   d="m 412.39,237.994 v 4.663 h 2.161 c -0.313,-0.788 -0.488,-1.643 -0.488,-2.545 0,-0.739 0.119,-1.45 0.334,-2.118 z"
   id="path296"
   style="stroke-width:0.0508353" />
	<path
   fill="#004982"
   d="m 427.453,240.111 c 0,0.902 -0.175,1.757 -0.488,2.545 h 2.165 v -4.663 h -2.01 c 0.215,0.668 0.333,1.38 0.333,2.118"
   id="path298"
   style="stroke-width:0.0508353" />
	<path
   fill="#004982"
   d="m 424.944,240.111 c 0,-1.169 -0.468,-2.229 -1.223,-2.993 l -2.505,3.26 c -0.013,0.021 -0.025,0.04 -0.041,0.064 l -0.014,0.016 c -0.01,0.006 -0.016,0.021 -0.025,0.03 -0.027,0.027 -0.057,0.05 -0.086,0.074 -0.205,0.131 -0.48,0.11 -0.66,-0.07 -0.043,-0.046 -0.078,-0.096 -0.102,-0.153 l -1.369,-2.094 1.824,1.223 2.979,-2.348 c -0.759,-0.769 -1.807,-1.242 -2.963,-1.242 -2.309,0 -4.183,1.896 -4.183,4.235 0,2.342 1.874,4.24 4.183,4.24 2.313,-0.002 4.185,-1.9 4.185,-4.242"
   id="path300"
   style="stroke-width:0.0508353" />
	<polygon
   fill="#004982"
   points="392.722,245.195 392.722,247.313 406.112,247.313 406.112,246.044 406.112,245.195 "
   id="polygon302"
   style="stroke-width:0.0508353" />
	<path
   fill="#004982"
   d="m 420.758,246.893 c -1.695,0 -3.248,-0.641 -4.426,-1.696 h -2.27 v 2.117 h 6.696 6.694 v -2.117 h -2.266 c -1.182,1.054 -2.731,1.696 -4.428,1.696"
   id="path304"
   style="stroke-width:0.0508353" />
	<rect
   x="435.405"
   y="245.194"
   fill="#004982"
   width="13.39"
   height="2.118"
   id="rect306"
   style="stroke-width:0.0508353" />
	<path
   fill="#004982"
   d="m 397.35,285.668 -0.363,-1.656 c -5.072,1.129 -8.87,5.701 -8.87,11.176 h 1.256 0.418 0.837 0.42 0.418 c 0,-3.858 2.672,-7.074 6.246,-7.867 l -0.18,-0.828 z"
   id="path308"
   style="stroke-width:0.0508353" />
	<path
   fill="#004982"
   d="m 418.498,284.78 -0.169,-0.769 c -3.849,0.858 -6.963,3.699 -8.24,7.407 -1.279,-3.707 -4.395,-6.548 -8.243,-7.407 l -0.167,0.766 -0.558,2.545 c 3.572,0.791 6.247,4.01 6.247,7.867 h 0.42 0.418 0.835 0.42 1.256 0.417 0.837 0.421 0.417 c 0,-3.858 2.674,-7.076 6.247,-7.867 h 0.003 l -0.56,-2.545 z"
   id="path310"
   style="stroke-width:0.0508353" />
	<path
   fill="#004982"
   d="m 439.672,284.012 c -3.851,0.859 -6.965,3.698 -8.242,7.405 -1.277,-3.707 -4.393,-6.547 -8.242,-7.405 l -0.169,0.764 -0.557,2.547 c 3.572,0.791 6.247,4.008 6.247,7.866 h 0.418 0.418 0.837 0.418 1.255 0.42 0.837 0.418 0.418 c 0,-3.858 2.675,-7.074 6.247,-7.866 l -0.557,-2.547 z"
   id="path312"
   style="stroke-width:0.0508353" />
	<path
   fill="#004982"
   d="m 444.529,284.012 -0.167,0.764 -0.558,2.547 c 3.572,0.791 6.249,4.008 6.249,7.866 h 0.417 0.42 0.837 0.418 1.256 c 0,-5.475 -3.798,-10.049 -8.872,-11.177"
   id="path314"
   style="stroke-width:0.0508353" />
	<path
   fill="#004982"
   d="m 407.787,305.564 c -0.116,0 -0.21,0.098 -0.21,0.214 0,0.116 0.094,0.209 0.21,0.209 0.116,0 0.208,-0.093 0.208,-0.209 0,-0.116 -0.092,-0.214 -0.208,-0.214"
   id="path316"
   style="stroke-width:0.0508353" />
	<path
   fill="#004982"
   d="m 409.041,305.989 c 0,-0.117 -0.092,-0.211 -0.208,-0.211 -0.115,0 -0.212,0.094 -0.212,0.211 0,0.117 0.097,0.214 0.212,0.214 0.115,0 0.208,-0.098 0.208,-0.214"
   id="path318"
   style="stroke-width:0.0508353" />
	<path
   fill="#004982"
   d="m 410.296,305.143 c 0,-0.117 -0.092,-0.214 -0.208,-0.214 -0.116,0 -0.208,0.098 -0.208,0.214 0,0.117 0.092,0.211 0.208,0.211 0.116,0 0.208,-0.094 0.208,-0.211"
   id="path320"
   style="stroke-width:0.0508353" />
	<g
   id="g356"
   style="stroke-width:0.208108">
		<rect
   x="406.112"
   y="171.89101"
   fill="#004982"
   width="2.944"
   height="2.98"
   id="rect322"
   style="stroke-width:0.0508353" />
		<rect
   x="409.88"
   y="171.89101"
   fill="#004982"
   width="2.9419999"
   height="2.98"
   id="rect324"
   style="stroke-width:0.0508353" />
		<rect
   x="417.409"
   y="171.89101"
   fill="#004982"
   width="2.9460001"
   height="2.98"
   id="rect326"
   style="stroke-width:0.0508353" />
		<rect
   x="421.16299"
   y="171.89101"
   fill="#004982"
   width="2.944"
   height="2.98"
   id="rect328"
   style="stroke-width:0.0508353" />
		<rect
   x="413.64301"
   y="171.89101"
   fill="#004982"
   width="2.944"
   height="2.98"
   id="rect330"
   style="stroke-width:0.0508353" />
		<rect
   x="402.34399"
   y="171.89101"
   fill="#004982"
   width="2.944"
   height="2.98"
   id="rect332"
   style="stroke-width:0.0508353" />
		<rect
   x="391.047"
   y="171.89101"
   fill="#004982"
   width="2.944"
   height="2.98"
   id="rect334"
   style="stroke-width:0.0508353" />
		<rect
   x="394.81201"
   y="171.89101"
   fill="#004982"
   width="2.944"
   height="2.98"
   id="rect336"
   style="stroke-width:0.0508353" />
		<rect
   x="398.578"
   y="171.89101"
   fill="#004982"
   width="2.944"
   height="2.98"
   id="rect338"
   style="stroke-width:0.0508353" />
		<rect
   x="447.52499"
   y="171.89101"
   fill="#004982"
   width="2.9460001"
   height="2.98"
   id="rect340"
   style="stroke-width:0.0508353" />
		<rect
   x="443.759"
   y="171.89101"
   fill="#004982"
   width="2.944"
   height="2.98"
   id="rect342"
   style="stroke-width:0.0508353" />
		<rect
   x="439.99399"
   y="171.89101"
   fill="#004982"
   width="2.944"
   height="2.98"
   id="rect344"
   style="stroke-width:0.0508353" />
		<path
   fill="#004982"
   d="M 512.508,222.424 512.452,107.088 H 329.066 v 117.133 c 0,0.822 0.099,2.108 0.099,2.108 1.672,49.772 42.016,89.618 91.593,89.618 50.215,0 91.074,-40.867 91.75,-91.536 v -1.368 c -0.025,-0.656 0,-0.001 0,-0.619 z m -124.391,-45.86 2.091,-2.118 v -6.777 h 0.838 v 3.391 h 29.71 29.713 v -3.391 h 0.837 v 6.777 l 2.093,2.118 v 2.542 h -65.283 v -2.542 z m -52.724,66.093 h 22.175 v 2.967 H 336.09 c -0.251,-0.98 -0.477,-1.971 -0.697,-2.967 z m 147.3,42.784 h -27.62 -0.027 v 2.547 h 25.448 c -2.737,2.591 -5.659,4.983 -8.708,7.2 h -0.067 -5.961 -10.712 v 2.557 h 10.712 2.169 0.15 c -5.974,3.891 -12.431,7.092 -19.281,9.434 v -0.094 -0.197 -11.699 c 0,-3.747 -2.995,-6.78 -6.694,-6.78 -3.698,0 -6.696,3.033 -6.696,6.78 v 11.699 3.59 0.114 c -2.613,0.445 -5.264,0.782 -7.951,0.99 v -0.128 -2.468 -13.797 c 0,-3.747 -2.996,-6.78 -6.696,-6.78 -3.698,0 -6.694,3.033 -6.694,6.78 v 13.797 2.468 0.128 c -2.685,-0.211 -5.338,-0.536 -7.951,-0.983 v -0.12 -4.275 -11.015 c 0,-3.747 -2.998,-6.78 -6.696,-6.78 -3.698,0 -6.694,3.033 -6.694,6.78 v 11.015 0.881 0.11 c -6.865,-2.352 -13.33,-5.559 -19.312,-9.463 h 0.126 c 0.008,0.003 0.016,0.01 0.024,0.013 h 12.885 v -2.557 h -10.289 -6.389 -0.036 c -3.049,-2.217 -5.971,-4.609 -8.706,-7.2 h 25.421 v -2.122 -0.425 h -27.619 v -6.777 h 26.361 1.258 1.673 v 1.273 h 65.283 v -1.273 h 1.672 27.62 v 6.777 z m 22.733,-39.817 h -21.478 v -2.967 h 22.176 c -0.22,0.996 -0.449,1.987 -0.698,2.967 z m 2.33,-13.138 h -25.063 v 1.696 h 24.875 c -0.119,0.996 -0.251,1.984 -0.405,2.967 h -23.215 -1.255 v 4.655 0.852 0.842 2.125 1.269 24.148 h 1.255 v -24.148 h 21.13 c -0.39,1.429 -0.816,2.839 -1.272,4.235 h -4.791 v 11.734 c -1.042,2.109 -2.152,4.176 -3.349,6.184 v -17.918 h -7.531 v 19.913 h 6.286 c -1.385,2.187 -2.863,4.305 -4.426,6.353 h -7.3 v -2.542 h -27.62 v 0.921 0.352 0.421 h -3.346 -63.19 -0.418 -1.673 v -0.421 -0.742 -0.531 h -27.619 v 2.542 h -7.302 c -1.565,-2.048 -3.043,-4.166 -4.43,-6.353 h 6.29 v -19.913 h -7.532 v 17.921 c -1.199,-2.008 -2.308,-4.075 -3.348,-6.179 v -11.742 h -4.795 c -0.456,-1.396 -0.881,-2.806 -1.271,-4.235 h 21.13 v 24.148 h 1.258 v -24.148 -1.269 -2.125 -0.842 -0.852 -4.655 h -1.258 -23.215 c -0.153,-0.983 -0.285,-1.971 -0.406,-2.967 h 24.878 v -1.696 H 333.76 c -0.115,-1.124 -0.226,-2.249 -0.299,-3.388 h 1.92 23.445 v -7.626 h -3.35 v -3.813 h 2.244 c 1.061,-1.269 2.276,-2.408 3.617,-3.383 v -5.938 h 6.706 c 1.473,0.868 3.183,1.362 5.01,1.362 1.826,0 3.537,-0.494 5.01,-1.362 h 6.709 2.51 v -2.542 h -6.278 v -1.274 H 365.1 l 0.002,1.274 h -6.276 v -4.237 -0.427 h 2.516 c 0.297,-10.801 11.891,-19.485 26.148,-19.485 0.095,0 0.189,0.003 0.283,0.003 0.114,-0.003 0.231,-0.003 0.345,-0.003 h 32.64 32.643 c 0.113,0 0.229,0 0.344,0.003 0.095,0 0.189,-0.003 0.283,-0.003 14.259,0 25.852,8.684 26.148,19.485 h 2.518 v 4.663 h -6.279 v -1.274 h -15.9 v 1.274 h -6.276 v 2.542 h 9.217 c 1.473,0.868 3.186,1.362 5.012,1.362 1.824,0 3.537,-0.494 5.008,-1.362 h 6.709 v 5.938 c 1.336,0.975 2.553,2.113 3.615,3.383 h 2.243 v 3.813 h -3.348 v 7.626 h 23.561 1.8 c -0.073,1.139 -0.186,2.265 -0.3,3.389 z"
   id="path346"
   style="stroke-width:0.0508353" />
		<rect
   x="436.22601"
   y="171.89101"
   fill="#004982"
   width="2.9460001"
   height="2.98"
   id="rect348"
   style="stroke-width:0.0508353" />
		<rect
   x="424.92801"
   y="171.89101"
   fill="#004982"
   width="2.944"
   height="2.98"
   id="rect350"
   style="stroke-width:0.0508353" />
		<rect
   x="428.69501"
   y="171.89101"
   fill="#004982"
   width="2.9460001"
   height="2.98"
   id="rect352"
   style="stroke-width:0.0508353" />
		<rect
   x="432.46201"
   y="171.89101"
   fill="#004982"
   width="2.944"
   height="2.98"
   id="rect354"
   style="stroke-width:0.0508353" />
	</g>
	<path
   fill="#004982"
   d="m 483.111,219.354 v -0.846 h -0.25 c -3.453,-4.149 -8.622,-6.778 -14.395,-6.778 -5.777,0 -10.946,2.63 -14.399,6.778 h -0.25 v 1.695 h 29.294 z"
   id="path358"
   style="stroke-width:0.0508353" />
</g><path
     fill="#004982"
     d="m 265.337,348.366 v 20.664 c 0,2.95 0.483,5.106 1.447,6.466 1.438,1.972 3.461,2.957 6.072,2.957 2.62,0 4.653,-0.985 6.091,-2.957 0.963,-1.317 1.447,-3.472 1.447,-6.466 v -20.664 h 5.18 v 22.106 c 0,3.616 -1.127,6.596 -3.38,8.939 -2.536,2.608 -5.648,3.914 -9.338,3.914 -3.695,0 -6.798,-1.305 -9.317,-3.914 -2.253,-2.342 -3.381,-5.323 -3.381,-8.939 v -22.106 z"
     id="path362"
     style="stroke-width:0.0508353" /><polygon
     fill="#004982"
     points="295.622,346.033 320.661,372.227 320.661,348.365 325.841,348.365 325.841,384.791 300.802,358.665 300.802,382.7 295.622,382.7 "
     id="polygon364"
     style="stroke-width:0.0508353" /><rect
     x="335.892"
     y="348.36499"
     fill="#004982"
     width="5.1799998"
     height="34.334999"
     id="rect366"
     style="stroke-width:0.0508353" /><polygon
     fill="#004982"
     points="347.21,348.366 352.88,348.366 362.376,372.16 372.002,348.366 377.674,348.366 362.264,385.28 "
     id="polygon368"
     style="stroke-width:0.0508353" /><polygon
     fill="#004982"
     points="388.944,366.357 388.944,377.83 402.709,377.83 402.709,382.7 383.764,382.7 383.764,348.365 402.709,348.365 402.709,353.237 388.944,353.237 388.944,361.485 402.311,361.485 402.311,366.357 "
     id="polygon370"
     style="stroke-width:0.0508353" /><path
     fill="#004982"
     d="m 416.515,364.133 h 1.649 c 4.905,0 7.361,-1.874 7.361,-5.628 0,-3.513 -2.388,-5.269 -7.16,-5.269 h -1.849 v 10.897 z m 6.45,3.936 10.629,14.63 h -6.337 l -9.807,-14.053 h -0.935 v 14.053 h -5.18 v -34.333 h 6.072 c 4.535,0 7.81,0.854 9.826,2.558 2.223,1.898 3.336,4.404 3.336,7.516 0,2.432 -0.697,4.523 -2.09,6.271 -1.393,1.75 -3.232,2.869 -5.514,3.358"
     id="path372"
     style="stroke-width:0.0508353" /><path
     fill="#004982"
     d="m 459.99,353.459 -4.203,2.491 c -0.786,-1.364 -1.532,-2.251 -2.246,-2.667 -0.741,-0.477 -1.697,-0.712 -2.868,-0.712 -1.438,0 -2.632,0.408 -3.582,1.223 -0.948,0.803 -1.421,1.81 -1.421,3.028 0,1.676 1.243,3.026 3.737,4.05 l 3.423,1.401 c 2.785,1.128 4.825,2.504 6.115,4.129 1.29,1.623 1.933,3.617 1.933,5.975 0,3.159 -1.052,5.771 -3.157,7.834 -2.117,2.076 -4.749,3.114 -7.893,3.114 -2.981,0 -5.441,-0.886 -7.384,-2.659 -1.911,-1.77 -3.105,-4.255 -3.578,-7.458 l 5.249,-1.155 c 0.237,2.016 0.652,3.408 1.244,4.18 1.068,1.482 2.624,2.225 4.67,2.225 1.615,0 2.957,-0.542 4.026,-1.622 1.064,-1.083 1.598,-2.452 1.598,-4.112 0,-0.667 -0.093,-1.276 -0.276,-1.832 -0.185,-0.556 -0.473,-1.068 -0.869,-1.536 -0.391,-0.465 -0.901,-0.903 -1.522,-1.308 -0.621,-0.408 -1.366,-0.797 -2.223,-1.167 l -3.312,-1.379 c -4.7,-1.984 -7.052,-4.887 -7.052,-8.708 0,-2.58 0.987,-4.734 2.96,-6.466 1.97,-1.75 4.424,-2.624 7.361,-2.624 3.955,-0.004 7.047,1.915 9.27,5.755"
     id="path374"
     style="stroke-width:0.0508353" /><rect
     x="468.95001"
     y="348.36499"
     fill="#004982"
     width="5.1799998"
     height="34.334999"
     id="rect376"
     style="stroke-width:0.0508353" /><path
     fill="#004982"
     d="m 489.383,377.83 h 2.336 c 2.326,0 4.262,-0.244 5.801,-0.733 1.543,-0.519 2.937,-1.342 4.181,-2.469 2.551,-2.327 3.824,-5.36 3.824,-9.093 0,-3.767 -1.26,-6.82 -3.779,-9.164 -2.27,-2.088 -5.611,-3.134 -10.028,-3.134 h -2.336 v 24.593 z m -5.18,4.87 v -34.335 h 7.202 c 3.454,0 6.184,0.342 8.184,1.024 2.15,0.667 4.097,1.802 5.847,3.403 3.543,3.232 5.316,7.48 5.316,12.743 0,5.276 -1.846,9.546 -5.535,12.807 -1.856,1.632 -3.796,2.767 -5.828,3.403 -1.898,0.638 -4.589,0.955 -8.071,0.955 z"
     id="path378"
     style="stroke-width:0.0508353" /><path
     fill="#004982"
     d="m 535.456,369.491 -5.091,-11.672 -5.338,11.672 z m 2.112,4.871 H 522.87 l -3.826,8.337 h -5.581 l 16.99,-36.49 16.39,36.49 h -5.67 z"
     id="path380"
     style="stroke-width:0.0508353" /><path
     fill="#004982"
     d="m 558.133,377.83 h 2.336 c 2.329,0 4.262,-0.244 5.805,-0.733 1.542,-0.519 2.933,-1.342 4.181,-2.469 2.548,-2.327 3.824,-5.36 3.824,-9.093 0,-3.767 -1.26,-6.82 -3.782,-9.164 -2.267,-2.088 -5.611,-3.134 -10.028,-3.134 h -2.336 z m -5.18,4.87 v -34.335 h 7.206 c 3.454,0 6.18,0.342 8.184,1.024 2.147,0.667 4.097,1.802 5.847,3.403 3.543,3.232 5.316,7.48 5.316,12.743 0,5.276 -1.849,9.546 -5.539,12.807 -1.852,1.632 -3.796,2.767 -5.825,3.403 -1.898,0.638 -4.589,0.955 -8.071,0.955 z"
     id="path382"
     style="stroke-width:0.0508353" /><path
     fill="#004982"
     d="m 232.897,429.444 h 2.336 c 2.326,0 4.262,-0.244 5.801,-0.734 1.543,-0.519 2.937,-1.34 4.181,-2.467 2.551,-2.329 3.824,-5.36 3.824,-9.095 0,-3.765 -1.26,-6.82 -3.779,-9.163 -2.27,-2.09 -5.611,-3.134 -10.028,-3.134 h -2.336 v 24.593 z m -5.18,4.87 V 399.98 h 7.202 c 3.454,0 6.184,0.342 8.184,1.024 2.15,0.667 4.097,1.802 5.847,3.402 3.543,3.232 5.316,7.48 5.316,12.743 0,5.276 -1.846,9.548 -5.537,12.808 -1.854,1.63 -3.794,2.765 -5.827,3.403 -1.898,0.637 -4.589,0.955 -8.071,0.955 h -7.114 z"
     id="path384"
     style="stroke-width:0.0508353" /><polygon
     fill="#004982"
     points="266.645,417.971 266.645,429.444 280.41,429.444 280.41,434.314 261.465,434.314 261.465,399.98 280.41,399.98 280.41,404.851 266.645,404.851 266.645,413.1 280.013,413.1 280.013,417.971 "
     id="polygon386"
     style="stroke-width:0.0508353" /><polygon
     fill="#004982"
     points="302.638,399.98 307.818,399.98 307.818,429.445 317.911,429.445 317.911,434.315 302.638,434.315 "
     id="polygon388"
     style="stroke-width:0.0508353" /><path
     fill="#004982"
     d="m 343.477,421.105 -5.091,-11.673 -5.335,11.673 z m 2.115,4.87 h -14.699 l -3.824,8.339 h -5.582 l 16.988,-36.492 16.39,36.492 h -5.67 z"
     id="path390"
     style="stroke-width:0.0508353" /><path
     fill="#004982"
     d="m 343.477,421.105 -5.091,-11.673 -5.335,11.673 z m 2.115,4.87 h -14.699 l -3.824,8.339 h -5.582 l 16.988,-36.492 16.39,36.492 h -5.67 z"
     id="path392"
     style="stroke-width:0.0508353" /><polygon
     fill="#004982"
     points="407.856,417.971 407.856,429.444 421.621,429.444 421.621,434.314 402.676,434.314 402.676,399.98 421.621,399.98 421.621,404.851 407.856,404.851 407.856,413.1 421.223,413.1 421.223,417.971 "
     id="polygon394"
     style="stroke-width:0.0508353" /><path
     fill="#004982"
     d="m 379.755,415.746 h 1.647 c 4.907,0 7.362,-1.874 7.362,-5.626 0,-3.513 -2.388,-5.269 -7.16,-5.269 h -1.849 z m 6.45,3.937 10.629,14.63 h -6.337 L 380.69,420.26 h -0.935 v 14.053 h -5.18 V 399.98 h 6.071 c 4.537,0 7.812,0.852 9.828,2.556 2.223,1.898 3.336,4.404 3.336,7.517 0,2.432 -0.697,4.521 -2.09,6.269 -1.395,1.751 -3.234,2.871 -5.515,3.361"
     id="path396"
     style="stroke-width:0.0508353" /><path
     fill="#004982"
     d="m 474.955,390.752 -9.072,6.136 -2.47,-2.066 7.14,-7.16 z m -15.386,9.228 v 20.664 c 0,2.949 0.48,5.106 1.443,6.466 1.438,1.97 3.464,2.955 6.072,2.955 2.624,0 4.655,-0.985 6.094,-2.955 0.963,-1.317 1.443,-3.472 1.443,-6.466 V 399.98 h 5.182 v 22.104 c 0,3.617 -1.125,6.598 -3.378,8.94 -2.536,2.607 -5.651,3.914 -9.341,3.914 -3.691,0 -6.798,-1.307 -9.317,-3.914 -2.253,-2.342 -3.378,-5.323 -3.378,-8.94 V 399.98 Z"
     id="path398"
     style="stroke-width:0.0508353" /><path
     fill="#004982"
     d="m 493.896,429.444 h 3.2 c 2.346,0 4.063,-0.46 5.161,-1.379 1.157,-0.994 1.733,-2.253 1.733,-3.779 0,-1.484 -0.556,-2.728 -1.667,-3.737 -1.083,-0.994 -3.016,-1.49 -5.801,-1.49 h -2.625 v 10.385 z m 0,-14.721 h 1.622 c 1.926,0 3.341,-0.426 4.237,-1.278 0.898,-0.85 1.344,-2.108 1.344,-3.769 0,-1.617 -0.456,-2.843 -1.378,-3.68 -0.918,-0.839 -2.253,-1.256 -4.003,-1.256 h -1.822 z m -5.18,19.591 V 399.98 h 5.158 c 2.299,0 4.127,0.178 5.491,0.534 1.378,0.357 2.543,0.957 3.493,1.802 0.962,0.876 1.728,1.964 2.29,3.269 0.578,1.32 0.867,2.656 0.867,4.003 0,2.46 -0.943,4.543 -2.824,6.249 1.822,0.621 3.258,1.711 4.314,3.269 1.066,1.543 1.598,3.334 1.598,5.38 0,2.684 -0.946,4.953 -2.844,6.805 -1.142,1.142 -2.425,1.935 -3.848,2.379 -1.556,0.429 -3.506,0.645 -5.848,0.645 h -7.847 z"
     id="path400"
     style="stroke-width:0.0508353" /><polygon
     fill="#004982"
     points="516.327,399.98 521.507,399.98 521.507,429.445 531.601,429.445 531.601,434.315 516.327,434.315 "
     id="polygon402"
     style="stroke-width:0.0508353" /><rect
     x="537.203"
     y="399.98001"
     fill="#004982"
     width="5.1799998"
     height="34.334999"
     id="rect404"
     style="stroke-width:0.0508353" /><path
     fill="#004982"
     d="m 576.687,401.816 v 6.126 c -2.996,-2.506 -6.094,-3.759 -9.296,-3.759 -3.528,0 -6.502,1.266 -8.915,3.802 -2.435,2.519 -3.647,5.604 -3.647,9.25 0,3.602 1.212,6.643 3.647,9.117 2.43,2.477 5.409,3.713 8.935,3.713 1.825,0 3.375,-0.295 4.651,-0.889 0.711,-0.296 1.447,-0.695 2.209,-1.201 0.765,-0.504 1.569,-1.111 2.415,-1.824 v 6.261 c -2.967,1.682 -6.078,2.524 -9.341,2.524 -4.907,0 -9.093,-1.714 -12.564,-5.138 -3.454,-3.454 -5.18,-7.618 -5.18,-12.497 0,-4.373 1.443,-8.272 4.335,-11.697 3.56,-4.195 8.164,-6.293 13.81,-6.293 3.084,0.002 6.063,0.837 8.941,2.505"
     id="path406"
     style="stroke-width:0.0508353" /><path
     fill="#004982"
     d="m 597.694,409.432 5.092,11.673 h -10.427 z m -16.899,24.883 h 5.582 l 3.824,-8.341 h 14.698 l 3.602,8.341 h 5.672 l -16.39,-36.492 z"
     id="path408"
     style="stroke-width:0.0508353" /><path
     fill="#004982"
     d="m 434.289,415.568 h 1.937 c 4.757,0 7.138,-1.829 7.138,-5.491 0,-3.545 -2.454,-5.315 -7.361,-5.315 h -1.714 z m 0,4.803 v 13.943 h -5.18 v -34.333 h 5.87 c 2.875,0 5.049,0.2 6.515,0.599 1.484,0.399 2.787,1.157 3.915,2.268 1.969,1.926 2.955,4.358 2.955,7.295 0,3.142 -1.052,5.633 -3.157,7.47 -2.105,1.839 -4.942,2.757 -8.514,2.757 h -2.404 z"
     id="path410"
     style="stroke-width:0.0508353" /><path
     fill="#004982"
     d="m 310.044,451.593 v 20.664 c 0,2.949 0.48,5.106 1.443,6.466 1.438,1.97 3.464,2.955 6.072,2.955 2.624,0 4.655,-0.985 6.094,-2.955 0.963,-1.317 1.443,-3.472 1.443,-6.466 v -20.664 h 5.182 v 22.104 c 0,3.617 -1.125,6.598 -3.378,8.94 -2.536,2.607 -5.651,3.914 -9.341,3.914 -3.691,0 -6.798,-1.307 -9.317,-3.914 -2.253,-2.342 -3.378,-5.323 -3.378,-8.94 v -22.104 z"
     id="path412"
     style="stroke-width:0.0508353" /><path
     fill="#004982"
     d="m 345.964,467.359 h 1.647 c 4.907,0 7.362,-1.874 7.362,-5.626 0,-3.513 -2.388,-5.271 -7.16,-5.271 h -1.849 z m 6.449,3.937 10.629,14.63 h -6.337 l -9.807,-14.053 h -0.935 v 14.053 h -5.18 v -34.333 h 6.071 c 4.537,0 7.812,0.854 9.828,2.556 2.223,1.898 3.336,4.404 3.336,7.517 0,2.432 -0.697,4.521 -2.09,6.271 -1.394,1.751 -3.233,2.869 -5.515,3.359"
     id="path414"
     style="stroke-width:0.0508353" /><path
     fill="#004982"
     d="m 375.15,451.593 v 20.664 c 0,2.949 0.48,5.106 1.443,6.466 1.438,1.97 3.464,2.955 6.072,2.955 2.625,0 4.655,-0.985 6.094,-2.955 0.963,-1.317 1.443,-3.472 1.443,-6.466 v -20.664 h 5.182 v 22.104 c 0,3.617 -1.125,6.598 -3.378,8.94 -2.536,2.607 -5.651,3.914 -9.341,3.914 -3.69,0 -6.798,-1.307 -9.317,-3.914 -2.253,-2.342 -3.378,-5.323 -3.378,-8.94 v -22.104 z"
     id="path416"
     style="stroke-width:0.0508353" /><path
     fill="#004982"
     d="m 423.544,468.048 h 14.189 v 1.135 c 0,2.58 -0.306,4.863 -0.911,6.849 -0.596,1.839 -1.596,3.558 -3.003,5.16 -3.188,3.589 -7.243,5.38 -12.163,5.38 -4.804,0 -8.92,-1.734 -12.344,-5.203 -3.423,-3.482 -5.138,-7.664 -5.138,-12.541 0,-4.981 1.745,-9.206 5.227,-12.675 3.482,-3.484 7.726,-5.227 12.722,-5.227 2.679,0 5.185,0.547 7.514,1.639 2.223,1.093 4.41,2.866 6.559,5.323 l -3.691,3.535 c -2.819,-3.75 -6.249,-5.624 -10.292,-5.624 -3.636,0 -6.68,1.253 -9.141,3.757 -2.46,2.46 -3.691,5.545 -3.691,9.25 0,3.826 1.369,6.977 4.112,9.452 2.565,2.297 5.343,3.445 8.341,3.445 2.548,0 4.836,-0.857 6.869,-2.573 2.031,-1.729 3.164,-3.799 3.402,-6.209 h -8.561 z"
     id="path418"
     style="stroke-width:0.0508353" /><path
     fill="#004982"
     d="m 451.704,451.593 v 20.664 c 0,2.949 0.483,5.106 1.447,6.466 1.438,1.97 3.461,2.955 6.072,2.955 2.62,0 4.655,-0.985 6.091,-2.955 0.963,-1.317 1.447,-3.472 1.447,-6.466 v -20.664 h 5.182 v 22.104 c 0,3.617 -1.128,6.598 -3.381,8.94 -2.536,2.607 -5.648,3.914 -9.338,3.914 -3.695,0 -6.798,-1.307 -9.317,-3.914 -2.253,-2.342 -3.381,-5.323 -3.381,-8.94 v -22.104 z"
     id="path420"
     style="stroke-width:0.0508353" /><path
     fill="#004982"
     d="m 493.942,461.044 5.092,11.675 h -10.427 z m -16.899,24.884 h 5.582 l 3.824,-8.341 h 14.698 l 3.602,8.341 h 5.672 l -16.39,-36.492 z"
     id="path422"
     style="stroke-width:0.0508353" /><polygon
     fill="#004982"
     points="537.357,451.594 531.398,451.594 523.527,465.313 515.674,451.594 509.717,451.594 520.925,471.094 520.925,485.928 526.105,485.928 526.105,471.094 "
     id="polygon424"
     style="stroke-width:0.0508353" /></g>
</svg>
