<?xml version="1.0" encoding="UTF-8" standalone="no"?>
<svg
   width="56"
   height="56"
   version="1.1"
   id="svg325"
   sodipodi:docname="naturalistauy.svg"
   xml:space="preserve"
   inkscape:version="1.2.1 (9c6d41e, 2022-07-14)"
   xmlns:inkscape="http://www.inkscape.org/namespaces/inkscape"
   xmlns:sodipodi="http://sodipodi.sourceforge.net/DTD/sodipodi-0.dtd"
   xmlns="http://www.w3.org/2000/svg"
   xmlns:svg="http://www.w3.org/2000/svg"><defs
     id="defs329" /><sodipodi:namedview
     id="namedview327"
     pagecolor="#ffffff"
     bordercolor="#666666"
     borderopacity="1.0"
     inkscape:showpageshadow="2"
     inkscape:pageopacity="0.0"
     inkscape:pagecheckerboard="0"
     inkscape:deskcolor="#d1d1d1"
     showgrid="false"
     inkscape:zoom="5.9599"
     inkscape:cx="48.658534"
     inkscape:cy="31.376365"
     inkscape:window-width="1253"
     inkscape:window-height="740"
     inkscape:window-x="1754"
     inkscape:window-y="122"
     inkscape:window-maximized="0"
     inkscape:current-layer="svg325" /><!-- Created with Method Draw - http://github.com/duopixel/Method-Draw/ --><g
     id="g317"><title
       id="title311">background</title><rect
       fill="#fff"
       id="canvas_background"
       height="58"
       width="58"
       y="-1"
       x="-1" /><g
       display="none"
       overflow="visible"
       y="0"
       x="0"
       height="100%"
       width="100%"
       id="canvasGrid"><rect
         fill="url(#gridpattern)"
         stroke-width="0"
         y="0"
         x="0"
         height="100%"
         width="100%"
         id="rect314" /></g></g><path
     d="m 37.908719,7.806543 c 0.37459,0 0.69534,0.454045 0.94261,0.986181 l 0.0519,0.115087 c 0.008,0.01933 0.0168,0.03873 0.0251,0.05818 l 0.0484,0.117132 v 0 l 0.046,0.117467 v 0 l 0.0436,0.116981 v 0 l 0.0412,0.115672 v 0 l 0.0387,0.113541 v 0 l 0.0533,0.164518 v 0 l 0.0475,0.1551 v 0 l 0.0415,0.142908 v 0 l 0.0243,0.08713 v 0 c 0.58235,0.111242 1.25402,0.293553 1.97151,0.529587 l 0.27113,0.091 v 0 l 0.27491,0.09583 c 0.46105,0.163632 0.935765,0.346555 1.41351,0.544535 l 0.286929,0.120561 v 0 l 0.287147,0.123971 c 0.43063,0.188412 0.860278,0.387648 1.281207,0.59462 l 0.279242,0.139094 c 0.231483,0.116809 0.459745,0.235795 0.683457,0.356428 l 0.266185,0.145515 v 0 l 0.261308,0.146893 c 1.983362,1.130939 3.491776,2.365398 3.491776,3.291154 0,2.33644 -0.944454,4.090773 -1.932885,5.210369 l -0.109959,0.121785 c -0.330151,0.357502 -0.661484,0.644261 -0.960644,0.858328 l -0.09848,0.06866 c -0.0324,0.02199 -0.06436,0.04307 -0.09583,0.06326 l -0.09289,0.05784 c -0.06089,0.03675 -0.119642,0.06988 -0.175893,0.09937 l -0.08245,0.0415 c -0.18779,0.09044 -0.342669,0.136115 -0.448944,0.136115 -0.571714,0 -1.083057,-0.181374 -1.618513,-0.402179 l -0.546624,-0.22869 v 0 l -0.189024,-0.07662 C 43.091695,21.972239 42.378259,21.74832 41.472819,21.74832 l -0.0757,7.32e-4 v 0 l -0.0751,0.0023 v 0 l -0.0744,0.0041 v 0 l -0.0737,0.0061 c -0.0122,0.0012 -0.0244,0.0025 -0.0366,0.0038 l -0.0725,0.0093 c -0.024,0.0035 -0.0479,0.0074 -0.0717,0.01174 l -0.0708,0.01432 c -0.64536,0.143693 -1.1784,0.63599 -1.47428,2.101461 l -0.0313,0.16376 v 0 l -0.0294,0.171661 c -0.005,0.02928 -0.009,0.05889 -0.014,0.08885 l -0.0265,0.183851 c -0.0127,0.094 -0.0247,0.191129 -0.0359,0.291492 l -0.0214,0.205068 c -0.003,0.03491 -0.007,0.07018 -0.01,0.105824 l -0.0182,0.218339 v 0 l -0.0161,0.227411 c -0.005,0.07734 -0.01,0.156214 -0.0139,0.236664 l -0.0116,0.246097 c -0.004,0.08362 -0.007,0.168851 -0.009,0.25571 l -0.007,0.265504 c -8.9e-4,0.04508 -0.002,0.09057 -0.003,0.13648 l -0.004,0.280531 v 0 l -0.002,0.389294 v 0 l -0.005,0.349237 v 0 l -0.005,0.237187 v 0 l -0.007,0.222491 v 0 l -0.005,0.125849 c -8.9e-4,0.01888 -0.002,0.03659 -0.003,0.05296 l -0.003,0.04489 c 10e-4,1.722795 -0.35793,3.162898 -0.83954,4.519083 l -0.0947,0.261494 c -0.032,0.08685 -0.0645,0.173404 -0.0974,0.259716 l -0.0996,0.258263 v 0 l -0.10157,0.257127 v 0 l -0.15511,0.384263 v 0 l -0.38963,0.948211 -0.19831,0.489097 v 0 l -0.0977,0.246384 c -0.0162,0.04119 -0.0323,0.08245 -0.0483,0.12377 l -0.0955,0.248872 v 0 l -0.0936,0.250869 c -0.55546,1.51177 -0.99169,3.146318 -0.99169,5.169805 0,1.20365 0.13508,2.16574 0.31566,3.03845 l 0.0503,0.23591 v 0 l 0.0522,0.23216 v 0 l 0.0808,0.34272 v 0 l 0.22111,0.89788 1.12878,0.48085 c 0.43305,0.18447 0.71954,0.60109 0.73945,1.0683 l 0.001,0.0521 h -3.80043 c -0.62454,0 -1.18627,-0.37373 -1.42927,-0.945 l -0.0218,-0.0541 -0.97607,-2.55568 -1.18994,0.71138 c 0.24285,-0.27667 0.38048,-0.84709 0.45528,-1.49705 l 0.0181,-0.17122 c 0.003,-0.0288 0.005,-0.0577 0.008,-0.0867 l 0.0142,-0.17505 v 0 l 0.0117,-0.17654 c 0.002,-0.0295 0.003,-0.059 0.005,-0.0886 l 0.008,-0.1772 v 0 l 0.009,-0.26438 v 0 l 0.002,-0.0873 -1.47075,0.87937 c 0.2134,-0.24314 0.34558,-0.71305 0.42527,-1.2644 l 0.0214,-0.15962 v 0 l 0.0187,-0.1633 c 0.003,-0.0275 0.006,-0.0551 0.008,-0.0828 l 0.0149,-0.16741 v 0 l 0.0125,-0.1692 c 0.002,-0.0283 0.004,-0.0567 0.005,-0.085 l 0.009,-0.17049 v 0 l 0.007,-0.1704 v 0 l 0.006,-0.16956 v 0 l 0.004,-0.167969 v 0 l 0.002,-0.165621 v 0 l 0.001,-0.242386 v 0 c -0.97613,1.208216 -2.68457,2.458856 -4.77412,3.355726 l -0.13987,0.0593 -0.27364,-0.96444 -0.61533,0.26904 v 0 l -0.8346,0.36087 v 0 l -1.1294,0.48118 v 0 l -0.84205,0.35351 v 0 l -1.0548,0.43658 v 0 l -1.14368,0.46532 v 0 l -0.8862,0.3543 v 0 l -0.85872,0.33647 3.93794,0.79938 c 0.80981,0.16438 1.47136,0.74254 1.74436,1.5188 l 0.0224,0.067 h -10.12669 c -0.58635,0 -1.07148,-0.45623 -1.10744,-1.04147 -0.0891,-1.44936 -0.40837,-2.68547 -0.95791,-3.70833 -0.50291,0.65948 -1.18422,1.09463 -1.8315997,1.38041 l -0.12094,0.0519 v 0 l -0.11983,0.0485 v 0 l -0.11841,0.0452 c -0.0392,0.0145 -0.0781,0.0285 -0.11668,0.042 l -0.11465,0.0389 c -0.0189,0.006 -0.0377,0.0124 -0.0565,0.0183 l -0.111,0.0346 v 0 l -0.10819,0.0318 v 0 l -0.10506,0.0291 v 0 l -0.15104,0.0389 v 0 l -0.14226,0.0335 v 0 l -0.13243,0.0284 v 0 l -0.12154,0.0237 v 0 l -0.1433,0.025 v 0 l -0.1196,0.0183 v 0 l -0.14477,0.0184 v 0 l -0.0512,0.005 v 0 c 0.0467,-0.18851 0.0893,-0.37728 0.12803,-0.5657 l 0.0447,-0.22589 c 0.0215,-0.11282 0.0416,-0.22543 0.0605,-0.33768 l 0.0361,-0.22401 c 0.006,-0.0372 0.0114,-0.0744 0.0169,-0.11158 l 0.0314,-0.22215 c 0.005,-0.0369 0.01,-0.0738 0.0145,-0.11052 l 0.0268,-0.21978 v 0 l 0.024,-0.21789 v 0 l 0.0212,-0.21577 c 0.003,-0.0358 0.007,-0.0714 0.01,-0.10701 l 0.0174,-0.21214 v 0 l 0.0149,-0.20942 v 0 l 0.0126,-0.20647 v 0 l 0.0104,-0.20327 v 0 l 0.008,-0.19984 v 0 l 0.006,-0.19618 v 0 l 0.005,-0.19227 v 0 l 0.004,-0.28056 v 0 l 1.6e-4,-0.27043 v 0 l -0.003,-0.259505 v 0 l -0.006,-0.247776 v 0 l -0.008,-0.235241 v 0 l -0.006,-0.149467 v 0 l -0.0144,-0.280202 v 0 l -0.0162,-0.253641 v 0 l -0.0171,-0.225179 v 0 l -0.0211,-0.238547 v 0 l -0.019,-0.187384 v 0 l -0.0263,-0.221302 -1.92094,2.047226 C 6.0109696,39.185611 5.9188596,37.879297 5.9188596,36.652011 c 0,-6.995648 4.5713794,-12.499005 10.7560694,-15.50878 l 0.10612,-0.01594 v 0 l 0.20908,-0.02952 v 0 l 0.20482,-0.02649 v 0 l 0.20047,-0.02357 v 0 l 0.19606,-0.02079 c 0.0323,-0.0032 0.0644,-0.0064 0.0964,-0.0094 l 0.18931,-0.01683 v 0 l 0.18473,-0.01435 v 0 l 0.18006,-0.01199 v 0 l 0.17532,-0.0098 v 0 l 0.17052,-0.0076 v 0 l 0.16565,-0.0057 c 0.0272,-7.76e-4 0.0542,-0.0015 0.081,-0.0021 l 0.15819,-0.0029 v 0 l 0.15314,-0.0012 v 0 l 0.14801,3.33e-4 v 0 l 0.14281,0.0018 v 0 l 0.13754,0.0031 v 0 l 0.1322,0.0043 v 0 l 0.12678,0.0053 v 0 l 0.1213,0.0063 v 0 l 0.1715,0.01089 v 0 l 0.15876,0.01232 v 0 l 0.14576,0.01332 v 0 l 0.17373,0.01862 v 0 l 0.14964,0.01869 v 0 l 0.17803,0.026 v 0 l 0.18956,0.03416 v 0 c -0.37321,-0.479197 -0.82494,-0.90096 -1.28817,-1.230885 l 0.22079,-0.07111 v 0 l 0.44751,-0.06492 v 0 l 0.5422,-0.07575 v 0 l 0.62379,-0.08322 v 0 l 0.59248,-0.07515 v 0 l 0.64879,-0.07791 v 0 l 0.68131,-0.07677 v 0 l 0.68371,-0.07164 v 0 l 0.76317,-0.07306 v 0 l 1.02995,-0.08425 v 0 l 0.0816,-0.0055 v 0 c -0.72537,-0.41326 -1.77872,-0.525106 -2.68637,-0.528417 2.03597,-0.944423 3.5595,-2.123377 4.86873,-3.303234 l 0.22887,-0.208171 v 0 l 0.2248,-0.207906 v 0 l 0.22107,-0.207353 v 0 l 0.32543,-0.309371 v 0 l 0.94325,-0.907181 v 0 l 0.20522,-0.195501 v 0 l 0.20442,-0.192667 v 0 l 0.20397,-0.189547 v 0 l 0.20389,-0.186142 c 0.13598,-0.122896 0.27215,-0.243332 0.409,-0.360927 -0.004,-0.43028 0.0454,-0.866939 0.13275,-1.285728 l 0.0324,-0.147027 v 0 l 0.0354,-0.145305 c 0.0492,-0.192488 0.10612,-0.379755 0.16923,-0.559274 l 0.0485,-0.133148 v 0 l 0.0507,-0.1300041 c 0.0431,-0.106962 0.0883,-0.210404 0.13524,-0.309709 l 0.0572,-0.11714 c 0.0773,-0.153434 0.15868,-0.295645 0.24268,-0.424106 l 0.0635,-0.09373 c 0.29819,-0.424999 0.62352,-0.673821 0.91097,-0.638115 0.35894,0.04452 0.69993,0.449684 0.97578,0.907678 l 0.0676,0.115421 v 0 l 0.0647,0.116553 v 0 l 0.0617,0.116618 c 0.01,0.01938 0.0199,0.03872 0.0296,0.058 l 0.0568,0.114708 v 0 l 0.0533,0.1121 v 0 l 0.0497,0.108423 v 0 l 0.0459,0.1036761 v 0 l 0.042,0.09786 v 0 l 0.0553,0.133552 v 0 c 0.54265,-0.167842 1.12769,-0.279976 1.76887,-0.3257511 l 0.0254,-0.102082 v 0 l 0.0275,-0.106362 v 0 l 0.0297,-0.109922 v 0 l 0.0318,-0.112763 v 0 l 0.0339,-0.114887 v 0 l 0.036,-0.11629 v 0 l 0.0381,-0.116975 v 0 l 0.0402,-0.116941 v 0 l 0.0422,-0.116187 c 0.007,-0.01926 0.0145,-0.03846 0.0219,-0.05759 l 0.0453,-0.11371 v 0 l 0.0474,-0.11116 v 0 l 0.0494,-0.107891 c 0.21017,-0.441735 0.47328,-0.779613 0.78648,-0.779613 z m 10.022989,8.017113 -0.0846,6.65e-4 v 0 l -0.08916,0.0021 v 0 l -0.09288,0.0037 v 0 l -0.09578,0.0055 v 0 l -0.09785,0.0075 c -0.03287,0.0028 -0.06595,0.0061 -0.0991,0.0096 l -0.09951,0.01197 c -0.01658,0.0022 -0.03313,0.0045 -0.04965,0.0069 l -0.09858,0.0158 c -0.440496,0.07718 -0.83064,0.238458 -0.83064,0.556325 0,0.440679 0.217068,1.022067 0.502053,1.548654 l 0.0669,0.120458 c 0.09063,0.159076 0.186608,0.31154 0.283581,0.451697 l 0.07285,0.102721 c 0.0486,0.06682 0.09718,0.130214 0.145193,0.18946 l 0.07153,0.08567 v 0 l 0.07027,0.07892 c 0.185362,0.200971 0.352994,0.324241 0.468139,0.324241 0.12956,0 0.274746,-0.16845 0.413382,-0.434577 l 0.04594,-0.09223 c 0.0152,-0.03188 0.03031,-0.06488 0.04527,-0.09888 l 0.04442,-0.104953 c 0.0073,-0.01796 0.0146,-0.03616 0.02184,-0.05457 l 0.0428,-0.112966 v 0 l 0.0415,-0.11758 c 0.0068,-0.01995 0.01354,-0.04007 0.02019,-0.06034 l 0.03919,-0.12341 v 0 l 0.03743,-0.126567 c 0.0061,-0.02132 0.01209,-0.04276 0.018,-0.06429 l 0.03444,-0.130212 c 0.0056,-0.02186 0.01103,-0.04379 0.0164,-0.06578 l 0.03105,-0.132546 v 0 l 0.02855,-0.133374 c 0.0091,-0.04453 0.01771,-0.0891 0.02588,-0.13362 l 0.02302,-0.133283 v 0 l 0.01997,-0.132363 v 0 l 0.01675,-0.130861 c 0.02014,-0.173221 0.03117,-0.340884 0.03117,-0.496775 0,-0.451511 -0.193165,-0.594151 -0.671364,-0.631381 l -0.09614,-0.0059 c -0.03325,-0.0016 -0.06771,-0.0028 -0.103406,-0.0036 l -0.110818,-0.0017 c -0.01911,-1.31e-4 -0.03851,-1.92e-4 -0.05824,-1.92e-4 z m -9.242889,-3.357088 c -0.57126,0 -1.03435,0.468094 -1.03435,1.045517 0,0.577423 0.46309,1.045517 1.03435,1.045517 0.57125,0 1.03435,-0.468094 1.03435,-1.045517 0,-0.577423 -0.4631,-1.045517 -1.03435,-1.045517 z"
     id="path558"
     style="fill:#000000;fill-rule:evenodd;stroke:none;stroke-width:0.999999" /></svg>
